#define plant0250_width 60
#define plant0250_height 60
static char plant0250_bits[] = {
  0x1F, 0x00, 0x00, 0x00, 0x00, 0x00, 0x00, 0x00, 0xF1, 0x03, 0x00, 0x00, 
  0x00, 0x00, 0x00, 0x00, 0x01, 0x3E, 0x00, 0x00, 0x00, 0x00, 0x00, 0x00, 
  0x03, 0xE0, 0x01, 0x00, 0x00, 0x00, 0x00, 0x00, 0x03, 0x00, 0x07, 0x00, 
  0x00, 0x00, 0x00, 0x00, 0x02, 0x00, 0x1C, 0x00, 0x00, 0x00, 0x00, 0x00, 
  0x02, 0x00, 0x30, 0x00, 0x00, 0x00, 0x00, 0x00, 0x02, 0x00, 0xE0, 0x00, 
  0x00, 0x00, 0x00, 0x00, 0x02, 0x00, 0x00, 0x01, 0x00, 0x00, 0x00, 0x00, 
  0x02, 0x00, 0x00, 0x02, 0x00, 0x00, 0x00, 0x00, 0x04, 0x00, 0x00, 0x04, 
  0x00, 0x00, 0x00, 0x00, 0x04, 0x00, 0x00, 0x04, 0x00, 0x00, 0x80, 0x0F, 
  0x04, 0x00, 0x00, 0x0C, 0x00, 0x00, 0xFC, 0x08, 0x04, 0x00, 0x00, 0x08, 
  0x00, 0x80, 0x07, 0x08, 0x08, 0x00, 0x00, 0x10, 0x00, 0x60, 0x00, 0x08, 
  0x18, 0x00, 0x00, 0x10, 0x00, 0x18, 0x00, 0x04, 0x18, 0x00, 0x00, 0x10, 
  0x00, 0x0E, 0x00, 0x04, 0x10, 0x00, 0x00, 0x10, 0x00, 0x03, 0x00, 0x04, 
  0x30, 0x00, 0x00, 0x10, 0x80, 0x01, 0x00, 0x04, 0x20, 0x00, 0x00, 0x10, 
  0x40, 0x00, 0x00, 0x06, 0x60, 0x00, 0x00, 0x10, 0x40, 0x00, 0x00, 0x02, 
  0x40, 0x00, 0x00, 0x10, 0x60, 0x00, 0x00, 0x02, 0x40, 0x00, 0x00, 0x10, 
  0x20, 0x00, 0x00, 0x02, 0x80, 0x01, 0x00, 0x18, 0x30, 0x00, 0x00, 0x03, 
  0x00, 0x03, 0x00, 0x08, 0x10, 0x00, 0x00, 0x01, 0x00, 0x06, 0x00, 0x08, 
  0x10, 0x00, 0x80, 0x01, 0x00, 0x0C, 0x00, 0x18, 0x10, 0x00, 0x80, 0x00, 
  0x00, 0x38, 0x00, 0x30, 0x10, 0x00, 0xC0, 0x00, 0x00, 0xE0, 0x03, 0x20, 
  0x30, 0x00, 0x60, 0x00, 0x00, 0x00, 0x06, 0x40, 0x20, 0x00, 0x20, 0x00, 
  0x00, 0x00, 0xF8, 0x41, 0x30, 0x00, 0x18, 0x00, 0x00, 0x00, 0x00, 0x43, 
  0x18, 0x00, 0x0C, 0x00, 0x00, 0x00, 0x00, 0xC6, 0x08, 0x00, 0x07, 0x00, 
  0x00, 0x00, 0x00, 0x8C, 0x0D, 0xF0, 0x01, 0x00, 0x00, 0x00, 0x00, 0x08, 
  0x07, 0x1E, 0x00, 0x00, 0x00, 0x00, 0x00, 0x08, 0xC0, 0x03, 0x00, 0x00, 
  0x00, 0x00, 0x00, 0x18, 0x60, 0x00, 0x00, 0x00, 0x00, 0x00, 0x00, 0x10, 
  0x20, 0x00, 0x00, 0x00, 0x00, 0x00, 0x00, 0x10, 0x10, 0x00, 0x00, 0x00, 
  0x00, 0x00, 0x00, 0x10, 0x18, 0x00, 0x00, 0x00, 0x00, 0x00, 0x00, 0x30, 
  0x08, 0x00, 0x00, 0x00, 0x00, 0x00, 0x00, 0x20, 0x08, 0x00, 0x00, 0x00, 
  0x00, 0x00, 0x00, 0x20, 0x0C, 0x00, 0x00, 0x00, 0x00, 0x00, 0x00, 0x20, 
  0x04, 0x00, 0x00, 0x00, 0x00, 0x00, 0x00, 0x20, 0x04, 0x00, 0x00, 0x00, 
  0x00, 0x00, 0x00, 0x20, 0x04, 0x00, 0x00, 0x00, 0x00, 0x00, 0x00, 0xE0, 
  0x07, 0x00, 0x00, 0x00, 0x00, 0x00, 0x00, 0xE0, 0x07, 0x00, 0x00, 0x00, 
  0x00, 0x00, 0x00, 0xE0, 0x07, 0x00, 0x00, 0x00, 0x00, 0x00, 0x00, 0xE0, 
  0x07, 0x00, 0x00, 0x00, 0x00, 0x00, 0x00, 0xE0, 0x07, 0x00, 0x00, 0x00, 
  0x00, 0x00, 0x00, 0xE0, 0x07, 0x00, 0x00, 0x00, 0x00, 0x00, 0x00, 0xE0, 
  0x07, 0x00, 0x00, 0x00, 0x00, 0x00, 0x00, 0xE0, 0x07, 0x00, 0x00, 0x00, 
  0x00, 0x00, 0x00, 0xE0, 0x07, 0x00, 0x00, 0x00, 0x00, 0x00, 0x00, 0xE0, 
  0x07, 0x00, 0x00, 0x00, 0x00, 0x00, 0x00, 0xE0, 0x07, 0x00, 0x00, 0x00, 
  0x00, 0x00, 0x00, 0xE0, 0x07, 0x00, 0x00, 0x00, 0x00, 0x00, 0x00, 0xE0, 
  0x07, 0x00, 0x00, 0x00, 0x00, 0x00, 0x00, 0xE0, 0x07, 0x00, 0x00, 0x00, 
  };
