<?xml version="1.0" encoding="UTF-8" standalone="no"?>
<!-- Created with Inkscape (http://www.inkscape.org/) -->
<svg
   xmlns:svg="http://www.w3.org/2000/svg"
   xmlns="http://www.w3.org/2000/svg"
   version="1.0"
   width="814.96063"
   height="482.59842"
   id="svg3215">
  <defs
     id="defs3217" />
  <g
     transform="translate(-50.875,-387.5)"
     id="layer1">
    <g
       transform="translate(70.578889,17.64296)"
       id="g3250">
      <path
         d="M 374.53125,387.5 C 303.0031,387.5 239.29315,421.13575 198.34375,473.4375 L 160,473.4375 C 99.833783,473.43749 50.875,522.3649 50.875,582.53125 L 50.875,648.3125 C 50.875,708.47888 99.833784,757.4375 160,757.4375 L 205.375,757.4375 C 246.39505,804.825 306.98155,834.81252 374.53125,834.8125 C 442.08094,834.8125 502.66745,804.82499 543.6875,757.4375 L 587.375,757.4375 C 647.56455,757.43748 696.53125,708.47886 696.53125,648.3125 L 696.53125,582.53125 C 696.53126,522.36493 647.56455,473.4375 587.375,473.4375 L 550.71875,473.4375 C 509.76935,421.13575 446.0594,387.5 374.53125,387.5 z "
         style="fill:#000000;fill-rule:evenodd;stroke:none"
         id="path112" />
      <path
         d="M 388.59773,648.30636 L 388.59773,582.5455 C 388.59773,533.9649 428.13352,494.42897 476.71413,494.42897 L 587.37262,494.42897 C 635.95323,494.42897 675.51235,533.9649 675.51235,582.5455 L 675.51235,648.30636 C 675.51235,696.88703 635.95323,736.4229 587.37262,736.4229 C 587.37262,736.4229 424.80008,736.4229 343.72356,736.4229 C 370.90451,716.56172 388.59773,684.46212 388.59773,648.30636 z "
         style="fill:#ffffff;fill-rule:nonzero;stroke:none;stroke-width:4.96799994;stroke-linecap:butt;stroke-linejoin:miter;stroke-miterlimit:3.86400008;stroke-dasharray:none"
         id="path118" />
      <path
         d="M 244.76732,682.43408 L 208.44847,682.43408 L 201.94468,651.59336 C 197.3057,629.70406 193.03978,603.10586 192.22388,592.77913 C 191.38465,603.10586 187.14206,629.70406 182.50308,651.59336 L 175.97595,682.43408 L 140.07668,682.43408 L 106.20545,540.3987 L 146.76697,540.3987 L 150.61331,564.15289 C 153.8769,584.24722 157.74657,609.00365 159.14522,625.83446 C 160.77701,609.19015 165.22943,584.62014 169.70517,564.31605 L 174.55398,540.3987 L 210.68634,540.3987 L 215.55833,564.31605 C 220.01089,584.62014 224.46331,609.19015 226.11836,625.83446 C 227.51701,609.00365 231.38682,584.24722 234.62702,564.15289 L 238.47336,540.3987 L 278.66196,540.3987 L 244.76732,682.43408 z "
         style="fill:#ffffff;fill-rule:nonzero;stroke:none;stroke-width:4.96799994;stroke-linecap:butt;stroke-linejoin:miter;stroke-miterlimit:3.86400008;stroke-dasharray:none"
         id="path120" />
      <path
         d="M 314.25823,568.20905 C 302.27616,568.20905 293.348,561.28554 293.348,550.16602 C 293.348,539.79256 302.27616,532.4962 314.25823,532.4962 C 326.82298,532.4962 335.54139,539.79256 335.54139,550.16602 C 335.54139,561.28554 326.82298,568.20905 314.25823,568.20905 z M 295.98219,682.43408 L 295.98219,579.25851 L 332.51087,579.25851 L 332.51087,682.43408 L 295.98219,682.43408 z "
         style="fill:#ffffff;fill-rule:nonzero;stroke:none;stroke-width:4.96799994;stroke-linecap:butt;stroke-linejoin:miter;stroke-miterlimit:3.86400008;stroke-dasharray:none"
         id="path122" />
      <path
         d="M 477.34353,573.87361 L 477.34353,605.62355 L 552.91858,605.62355 L 552.91858,638.93529 L 477.34353,638.93529 L 477.34353,682.43408 L 438.18073,682.43408 L 438.18073,540.3987 L 560.96099,540.3987 L 560.96099,573.87361 L 477.34353,573.87361 z "
         style="fill:#000000;fill-rule:nonzero;stroke:none;stroke-width:4.96799994;stroke-linecap:butt;stroke-linejoin:miter;stroke-miterlimit:3.86400008;stroke-dasharray:none"
         id="path124" />
      <path
         d="M 601.96542,568.20905 C 590.00674,568.20905 581.05518,561.28554 581.05518,550.16602 C 581.05518,539.79256 590.00674,532.4962 601.96542,532.4962 C 614.53024,532.4962 623.24857,539.79256 623.24857,550.16602 C 623.24857,561.28554 614.53024,568.20905 601.96542,568.20905 z M 583.71278,682.43408 L 583.71278,579.25851 L 620.21813,579.25851 L 620.21813,682.43408 L 583.71278,682.43408 z "
         style="fill:#000000;fill-rule:nonzero;stroke:none;stroke-width:4.96799994;stroke-linecap:butt;stroke-linejoin:miter;stroke-miterlimit:3.86400008;stroke-dasharray:none"
         id="path126" />
      <path
         d="M 711.76136,513.73066 L 711.76136,488.74107 L 702.87979,488.74107 L 702.87979,483.63585 L 726.70381,483.63585 L 726.70381,488.74107 L 717.79891,488.74107 L 717.79891,513.73066 L 711.76136,513.73066 z "
         style="fill:#231f20;fill-rule:nonzero;stroke:none;stroke-width:4.96799994;stroke-linecap:butt;stroke-linejoin:miter;stroke-miterlimit:3.86400008;stroke-dasharray:none"
         id="path136" />
      <path
         d="M 730.55015,513.73066 L 730.55015,483.63585 L 739.68814,483.63585 L 745.0731,504.17303 L 750.38807,483.63585 L 759.52599,483.63585 L 759.52599,513.73066 L 753.93141,513.73066 L 753.88483,490.04647 L 747.98697,513.73066 L 742.11258,513.73066 L 736.19153,490.04647 L 736.14487,513.73066 L 730.55015,513.73066 z "
         style="fill:#231f20;fill-rule:nonzero;stroke:none;stroke-width:4.96799994;stroke-linecap:butt;stroke-linejoin:miter;stroke-miterlimit:3.86400008;stroke-dasharray:none"
         id="path138" />
    </g>
  </g>
</svg>
