#define clear_night_width 50
#define clear_night_height 50
static char clear_night_bits[] = {
  0x00, 0x00, 0x00, 0x00, 0x00, 0x00, 0x00, 0x00, 0x00, 0x00, 0x00, 0x00, 
  0x00, 0x00, 0x00, 0x00, 0x00, 0x00, 0x00, 0x00, 0x00, 0x00, 0x00, 0x00, 
  0x00, 0x00, 0x00, 0x00, 0x00, 0x00, 0x00, 0x00, 0x00, 0x00, 0x00, 0x00, 
  0x00, 0x00, 0x00, 0x00, 0x00, 0x00, 0x00, 0x00, 0x00, 0x00, 0x00, 0x00, 
  0x00, 0x00, 0x00, 0x00, 0x00, 0x00, 0x00, 0x00, 0x00, 0x00, 0x00, 0x00, 
  0x00, 0x00, 0x00, 0x00, 0x00, 0x00, 0x00, 0x00, 0x00, 0x00, 0x00, 0x00, 
  0x00, 0x00, 0x00, 0x00, 0x00, 0x00, 0x00, 0x00, 0x00, 0x00, 0x00, 0x00, 
  0x00, 0x00, 0x00, 0x00, 0x00, 0x00, 0x00, 0x00, 0x00, 0x70, 0x00, 0x00, 
  0x00, 0x00, 0x00, 0x00, 0x7C, 0x00, 0x00, 0x00, 0x00, 0x00, 0x00, 0x7E, 
  0x00, 0x00, 0x00, 0x00, 0x00, 0x00, 0x7F, 0x00, 0x00, 0x00, 0x00, 0x00, 
  0x80, 0x7F, 0x00, 0x00, 0x00, 0x00, 0x00, 0xC0, 0x7B, 0x00, 0x00, 0x00, 
  0x00, 0x00, 0xC0, 0x73, 0x00, 0x00, 0x00, 0x00, 0x00, 0xC0, 0x71, 0x00, 
  0x00, 0x00, 0x00, 0x00, 0xE0, 0x71, 0x00, 0x00, 0x00, 0x00, 0x00, 0xE0, 
  0xF0, 0x00, 0x00, 0x00, 0x00, 0x00, 0xE0, 0xE0, 0x00, 0x00, 0x00, 0x00, 
  0x00, 0xE0, 0xE0, 0x01, 0x00, 0x00, 0x00, 0x00, 0xE0, 0xC0, 0x03, 0x00, 
  0x00, 0x00, 0x00, 0xE0, 0x80, 0x0F, 0x00, 0x00, 0x00, 0x00, 0xE0, 0x00, 
  0xFF, 0x1F, 0x00, 0x00, 0x00, 0xE0, 0x01, 0xFE, 0x1F, 0x00, 0x00, 0x00, 
  0xC0, 0x01, 0xF8, 0x1F, 0x00, 0x00, 0x00, 0xC0, 0x03, 0xC0, 0x0F, 0x00, 
  0x00, 0x00, 0x80, 0x07, 0x00, 0x0F, 0x00, 0x00, 0x00, 0x00, 0x0F, 0x80, 
  0x07, 0x00, 0x00, 0x00, 0x00, 0x3F, 0xF0, 0x03, 0x00, 0x00, 0x00, 0x00, 
  0xFC, 0xFF, 0x01, 0x00, 0x00, 0x00, 0x00, 0xF8, 0xFF, 0x00, 0x00, 0x00, 
  0x00, 0x00, 0xE0, 0x3F, 0x00, 0x00, 0x00, 0x00, 0x00, 0x00, 0x00, 0x00, 
  0x00, 0x00, 0x00, 0x00, 0x00, 0x00, 0x00, 0x00, 0x00, 0x00, 0x00, 0x00, 
  0x00, 0x00, 0x00, 0x00, 0x00, 0x00, 0x00, 0x00, 0x00, 0x00, 0x00, 0x00, 
  0x00, 0x00, 0x00, 0x00, 0x00, 0x00, 0x00, 0x00, 0x00, 0x00, 0x00, 0x00, 
  0x00, 0x00, 0x00, 0x00, 0x00, 0x00, 0x00, 0x00, 0x00, 0x00, 0x00, 0x00, 
  0x00, 0x00, 0x00, 0x00, 0x00, 0x00, 0x00, 0x00, 0x00, 0x00, 0x00, 0x00, 
  0x00, 0x00, 0x00, 0x00, 0x00, 0x00, 0x00, 0x00, 0x00, 0x00, 0x00, 0x00, 
  0x00, 0x00, 0x00, 0x00, 0x00, 0x00, 0x00, 0x00, 0x00, 0x00, 0x00, 0x00, 
  0x00, 0x00, };
