#define clear_day_width 50
#define clear_day_height 50
static char clear_day_bits[] = {
  0x00, 0x00, 0x00, 0x00, 0x00, 0x00, 0x00, 0x00, 0x00, 0x00, 0x00, 0x00, 
  0x00, 0x00, 0x00, 0x00, 0x00, 0x00, 0x00, 0x00, 0x00, 0x00, 0x00, 0x00, 
  0x00, 0x00, 0x00, 0x00, 0x00, 0x00, 0x00, 0x00, 0x00, 0x00, 0x00, 0x00, 
  0x00, 0x00, 0x03, 0x00, 0x00, 0x00, 0x00, 0x00, 0x80, 0x07, 0x00, 0x00, 
  0x00, 0x00, 0x00, 0x80, 0x07, 0x00, 0x00, 0x00, 0x00, 0x00, 0x80, 0x07, 
  0x00, 0x00, 0x00, 0x00, 0x00, 0x80, 0x07, 0x00, 0x00, 0x00, 0x00, 0x18, 
  0x00, 0x03, 0x60, 0x00, 0x00, 0x00, 0x3C, 0x00, 0x00, 0xF0, 0x00, 0x00, 
  0x00, 0x7C, 0x00, 0x00, 0xF8, 0x00, 0x00, 0x00, 0xF8, 0x00, 0x00, 0x78, 
  0x00, 0x00, 0x00, 0xF0, 0xC0, 0x0F, 0x38, 0x00, 0x00, 0x00, 0x60, 0xF0, 
  0x7F, 0x18, 0x00, 0x00, 0x00, 0x00, 0xFC, 0xFF, 0x00, 0x00, 0x00, 0x00, 
  0x00, 0x7E, 0xF8, 0x01, 0x00, 0x00, 0x00, 0x00, 0x1F, 0xE0, 0x03, 0x00, 
  0x00, 0x00, 0x00, 0x0F, 0xC0, 0x07, 0x00, 0x00, 0x00, 0x80, 0x07, 0x80, 
  0x07, 0x00, 0x00, 0x00, 0x80, 0x03, 0x00, 0x07, 0x00, 0x00, 0x00, 0xC0, 
  0x03, 0x00, 0x0F, 0x00, 0x00, 0xC0, 0xC3, 0x01, 0x00, 0x0E, 0x0F, 0x00, 
  0xE0, 0xC7, 0x01, 0x00, 0x8E, 0x1F, 0x00, 0xE0, 0xC7, 0x01, 0x00, 0x8E, 
  0x1F, 0x00, 0xC0, 0xC3, 0x01, 0x00, 0x0E, 0x0F, 0x00, 0x00, 0xC0, 0x03, 
  0x00, 0x0F, 0x00, 0x00, 0x00, 0x80, 0x03, 0x00, 0x0F, 0x00, 0x00, 0x00, 
  0x80, 0x07, 0x80, 0x07, 0x00, 0x00, 0x00, 0x80, 0x0F, 0x80, 0x07, 0x00, 
  0x00, 0x00, 0x00, 0x1F, 0xE0, 0x03, 0x00, 0x00, 0x00, 0x00, 0x7E, 0xF8, 
  0x01, 0x00, 0x00, 0x00, 0x00, 0xFC, 0xFF, 0x00, 0x00, 0x00, 0x00, 0x00, 
  0xF8, 0x7F, 0x00, 0x00, 0x00, 0x00, 0xF0, 0xC0, 0x1F, 0x38, 0x00, 0x00, 
  0x00, 0xF8, 0x00, 0x00, 0x78, 0x00, 0x00, 0x00, 0x7C, 0x00, 0x00, 0xF8, 
  0x00, 0x00, 0x00, 0x3C, 0x00, 0x00, 0xF0, 0x00, 0x00, 0x00, 0x18, 0x00, 
  0x03, 0x60, 0x00, 0x00, 0x00, 0x00, 0x80, 0x07, 0x00, 0x00, 0x00, 0x00, 
  0x00, 0x80, 0x07, 0x00, 0x00, 0x00, 0x00, 0x00, 0x80, 0x07, 0x00, 0x00, 
  0x00, 0x00, 0x00, 0x80, 0x07, 0x00, 0x00, 0x00, 0x00, 0x00, 0x00, 0x03, 
  0x00, 0x00, 0x00, 0x00, 0x00, 0x00, 0x00, 0x00, 0x00, 0x00, 0x00, 0x00, 
  0x00, 0x00, 0x00, 0x00, 0x00, 0x00, 0x00, 0x00, 0x00, 0x00, 0x00, 0x00, 
  0x00, 0x00, 0x00, 0x00, 0x00, 0x00, 0x00, 0x00, 0x00, 0x00, 0x00, 0x00, 
  0x00, 0x00, };
