#define cloudy_width 50
#define cloudy_height 50
static char cloudy_bits[] = {
  0x00, 0x00, 0x00, 0x00, 0x00, 0x00, 0x00, 0x00, 0x00, 0x00, 0x00, 0x00, 
  0x00, 0x00, 0x00, 0x00, 0x00, 0x00, 0x00, 0x00, 0x00, 0x00, 0x00, 0x00, 
  0x00, 0x00, 0x00, 0x00, 0x00, 0x00, 0x00, 0x00, 0x00, 0x00, 0x00, 0x00, 
  0x00, 0x00, 0x00, 0x00, 0x00, 0x00, 0x00, 0x00, 0x00, 0x00, 0x00, 0x00, 
  0x00, 0x00, 0x00, 0x00, 0x00, 0x00, 0x00, 0x00, 0x00, 0x00, 0x00, 0x00, 
  0x00, 0x00, 0x00, 0x00, 0x00, 0x80, 0x07, 0x00, 0x00, 0x00, 0x00, 0x00, 
  0xF8, 0x7F, 0x00, 0x00, 0x00, 0x00, 0x00, 0xFE, 0xFF, 0x01, 0x00, 0x00, 
  0x00, 0x00, 0xFF, 0xFF, 0x03, 0x00, 0x00, 0x00, 0x80, 0x0F, 0xC0, 0x0F, 
  0x00, 0x00, 0x00, 0xC0, 0x07, 0x00, 0x1F, 0x00, 0x00, 0x00, 0xE0, 0x01, 
  0x00, 0x3E, 0x00, 0x00, 0x80, 0xFF, 0x00, 0x00, 0xFC, 0x07, 0x00, 0xE0, 
  0x7F, 0x00, 0x00, 0xF8, 0x1F, 0x00, 0xF0, 0x7F, 0x00, 0x00, 0xF0, 0x7F, 
  0x00, 0xF8, 0x00, 0x00, 0x00, 0x00, 0x7C, 0x00, 0x3C, 0x00, 0x00, 0x00, 
  0x00, 0xF0, 0x00, 0x1E, 0x00, 0x00, 0x00, 0x00, 0xE0, 0x01, 0x0E, 0x00, 
  0x00, 0x00, 0x00, 0xC0, 0x01, 0x0F, 0x00, 0x00, 0x00, 0x00, 0xC0, 0x03, 
  0x0F, 0x00, 0x00, 0x00, 0x00, 0x80, 0x03, 0x07, 0x00, 0x00, 0x00, 0x00, 
  0x80, 0x03, 0x07, 0x00, 0x00, 0x00, 0x00, 0x80, 0x03, 0x07, 0x00, 0x00, 
  0x00, 0x00, 0x80, 0x03, 0x07, 0x00, 0x00, 0x00, 0x00, 0x80, 0x03, 0x0F, 
  0x00, 0x00, 0x00, 0x00, 0xC0, 0x03, 0x0E, 0x00, 0x00, 0x00, 0x00, 0xC0, 
  0x01, 0x1E, 0x00, 0x00, 0x00, 0x00, 0xE0, 0x01, 0x3C, 0x00, 0x00, 0x00, 
  0x00, 0xF0, 0x00, 0x7C, 0x80, 0x00, 0x00, 0x0C, 0xF8, 0x00, 0xF8, 0xFF, 
  0x01, 0x00, 0xFE, 0x7F, 0x00, 0xE0, 0xFF, 0x03, 0x00, 0xFF, 0x3F, 0x00, 
  0xC0, 0xFF, 0x0F, 0xC0, 0xFF, 0x0F, 0x00, 0x00, 0x1E, 0xFF, 0xFF, 0xE7, 
  0x01, 0x00, 0x00, 0x00, 0xFE, 0xFF, 0x01, 0x00, 0x00, 0x00, 0x00, 0xF8, 
  0x7F, 0x00, 0x00, 0x00, 0x00, 0x00, 0xC0, 0x0F, 0x00, 0x00, 0x00, 0x00, 
  0x00, 0x00, 0x00, 0x00, 0x00, 0x00, 0x00, 0x00, 0x00, 0x00, 0x00, 0x00, 
  0x00, 0x00, 0x00, 0x00, 0x00, 0x00, 0x00, 0x00, 0x00, 0x00, 0x00, 0x00, 
  0x00, 0x00, 0x00, 0x00, 0x00, 0x00, 0x00, 0x00, 0x00, 0x00, 0x00, 0x00, 
  0x00, 0x00, 0x00, 0x00, 0x00, 0x00, 0x00, 0x00, 0x00, 0x00, 0x00, 0x00, 
  0x00, 0x00, 0x00, 0x00, 0x00, 0x00, 0x00, 0x00, 0x00, 0x00, 0x00, 0x00, 
  0x00, 0x00, };
