#define partly_cloudy_day_width 50
#define partly_cloudy_day_height 50
static char partly_cloudy_day_bits[] = {
  0x00, 0x00, 0x38, 0x00, 0x00, 0x00, 0x00, 0x00, 0x00, 0x38, 0x00, 0x00, 
  0x00, 0x00, 0x00, 0x00, 0x38, 0x00, 0x00, 0x00, 0x00, 0x00, 0x00, 0x38, 
  0x00, 0x00, 0x00, 0x00, 0x00, 0x00, 0x38, 0x00, 0x00, 0x00, 0x00, 0x00, 
  0x00, 0x38, 0x00, 0x00, 0x00, 0x00, 0xC0, 0x01, 0x00, 0x00, 0x07, 0x00, 
  0x00, 0xC0, 0x03, 0x00, 0x80, 0x07, 0x00, 0x00, 0xC0, 0x07, 0x00, 0xC0, 
  0x03, 0x00, 0x00, 0x80, 0x07, 0x3C, 0xC0, 0x03, 0x00, 0x00, 0x00, 0x03, 
  0xFF, 0xC1, 0x00, 0x00, 0x00, 0x00, 0xC0, 0xFF, 0x07, 0x00, 0x00, 0x00, 
  0x00, 0xE0, 0xFF, 0x0F, 0x00, 0x00, 0x00, 0x00, 0xF0, 0x01, 0x1F, 0x00, 
  0x00, 0x00, 0x00, 0x78, 0x00, 0x3E, 0x00, 0x00, 0x00, 0x00, 0x38, 0x00, 
  0x3C, 0x00, 0x00, 0x00, 0x00, 0x3C, 0x00, 0x78, 0x00, 0x00, 0x00, 0x00, 
  0x1C, 0x00, 0x70, 0x00, 0x00, 0x00, 0x00, 0x1E, 0x00, 0x70, 0x00, 0x00, 
  0x00, 0x3F, 0x1E, 0xF0, 0x7F, 0xF8, 0x00, 0x00, 0x3F, 0x1E, 0xFC, 0xFF, 
  0xFC, 0x01, 0x00, 0x3F, 0x1E, 0xFF, 0xFF, 0xFB, 0x00, 0x00, 0x00, 0x9C, 
  0x3F, 0xF0, 0x07, 0x00, 0x00, 0x00, 0xDC, 0x07, 0x80, 0x0F, 0x00, 0x00, 
  0x00, 0xFC, 0x03, 0x00, 0x1F, 0x00, 0x00, 0x00, 0xFF, 0x00, 0x00, 0xFC, 
  0x03, 0x00, 0xC0, 0xFF, 0x00, 0x00, 0xF8, 0x1F, 0x00, 0xF0, 0x7F, 0x00, 
  0x00, 0xF8, 0x3F, 0x00, 0xF8, 0x21, 0x00, 0x00, 0x10, 0x7E, 0x00, 0x7C, 
  0x00, 0x00, 0x00, 0x00, 0xF8, 0x00, 0x3E, 0x00, 0x00, 0x00, 0x00, 0xE0, 
  0x01, 0x1E, 0x00, 0x00, 0x00, 0x00, 0xE0, 0x01, 0x0E, 0x00, 0x00, 0x00, 
  0x00, 0xC0, 0x03, 0x0F, 0x00, 0x00, 0x00, 0x00, 0xC0, 0x03, 0x07, 0x00, 
  0x00, 0x00, 0x00, 0x80, 0x03, 0x07, 0x00, 0x00, 0x00, 0x00, 0x80, 0x03, 
  0x07, 0x00, 0x00, 0x00, 0x00, 0x80, 0x03, 0x07, 0x00, 0x00, 0x00, 0x00, 
  0x80, 0x03, 0x0F, 0x00, 0x00, 0x00, 0x00, 0xC0, 0x03, 0x0E, 0x00, 0x00, 
  0x00, 0x00, 0xC0, 0x03, 0x1E, 0x00, 0x00, 0x00, 0x00, 0xE0, 0x01, 0x3E, 
  0x00, 0x00, 0x00, 0x00, 0xE0, 0x01, 0x7C, 0x00, 0x00, 0x00, 0x00, 0xF8, 
  0x00, 0xF8, 0xE1, 0x01, 0x00, 0x1E, 0x7E, 0x00, 0xF0, 0xFF, 0x03, 0x00, 
  0xFF, 0x3F, 0x00, 0xC0, 0xFF, 0x07, 0x80, 0xFF, 0x1F, 0x00, 0x00, 0xBF, 
  0x3F, 0xF0, 0xF7, 0x03, 0x00, 0x00, 0x00, 0xFF, 0xFF, 0x03, 0x00, 0x00, 
  0x00, 0x00, 0xFC, 0xFF, 0x00, 0x00, 0x00, 0x00, 0x00, 0xE0, 0x1F, 0x00, 
  0x00, 0x00, };
