#define partly_cloudy_night_width 50
#define partly_cloudy_night_height 50
static char partly_cloudy_night_bits[] = {
  0x00, 0x00, 0x00, 0x00, 0x00, 0x00, 0x00, 0x00, 0x00, 0x00, 0x00, 0x00, 
  0x00, 0x00, 0x00, 0x00, 0x00, 0x00, 0x00, 0x00, 0x00, 0x00, 0x00, 0x00, 
  0x00, 0x00, 0x00, 0x00, 0x00, 0x00, 0x00, 0xE0, 0x01, 0x00, 0x00, 0x00, 
  0x00, 0x00, 0xF0, 0x01, 0x00, 0x00, 0x00, 0x00, 0x00, 0xF8, 0x01, 0x00, 
  0x00, 0x00, 0x00, 0x00, 0xFC, 0x01, 0x00, 0x00, 0x00, 0x00, 0x00, 0xFE, 
  0x00, 0x00, 0x00, 0x00, 0x00, 0x00, 0xEF, 0x00, 0x00, 0x00, 0x00, 0x00, 
  0x00, 0xE7, 0x01, 0x00, 0x00, 0x00, 0x00, 0x80, 0xE7, 0x01, 0x00, 0x00, 
  0x00, 0x00, 0x80, 0xC3, 0x01, 0x00, 0x00, 0x00, 0x00, 0x80, 0xC3, 0x03, 
  0x00, 0x00, 0x00, 0x00, 0x80, 0xC3, 0x03, 0x00, 0x00, 0x00, 0x00, 0x80, 
  0x83, 0x07, 0x00, 0x00, 0x00, 0x00, 0x80, 0x03, 0x0F, 0x00, 0x00, 0x00, 
  0x00, 0x80, 0x03, 0x3F, 0x00, 0x00, 0x00, 0x00, 0x80, 0x03, 0xFE, 0x7F, 
  0x00, 0x00, 0x00, 0xF0, 0x3F, 0xF8, 0x7F, 0x00, 0x00, 0x00, 0xFC, 0xFF, 
  0xE0, 0x7F, 0x00, 0x00, 0x00, 0xFF, 0xFF, 0x03, 0x3F, 0x00, 0x00, 0x80, 
  0x3F, 0xE0, 0x07, 0x3E, 0x00, 0x00, 0xC0, 0x07, 0x80, 0x0F, 0x1F, 0x00, 
  0x00, 0xE0, 0x03, 0x00, 0xDF, 0x0F, 0x00, 0x00, 0xFF, 0x00, 0x00, 0xFC, 
  0x07, 0x00, 0xE0, 0xFF, 0x00, 0x00, 0xF8, 0x1F, 0x00, 0xF0, 0x7F, 0x00, 
  0x00, 0xF8, 0x3F, 0x00, 0xF8, 0x21, 0x00, 0x00, 0x10, 0x7E, 0x00, 0x7C, 
  0x00, 0x00, 0x00, 0x00, 0xF8, 0x00, 0x3E, 0x00, 0x00, 0x00, 0x00, 0xE0, 
  0x01, 0x1E, 0x00, 0x00, 0x00, 0x00, 0xE0, 0x01, 0x0E, 0x00, 0x00, 0x00, 
  0x00, 0xC0, 0x03, 0x0F, 0x00, 0x00, 0x00, 0x00, 0xC0, 0x03, 0x07, 0x00, 
  0x00, 0x00, 0x00, 0x80, 0x03, 0x07, 0x00, 0x00, 0x00, 0x00, 0x80, 0x03, 
  0x07, 0x00, 0x00, 0x00, 0x00, 0x80, 0x03, 0x07, 0x00, 0x00, 0x00, 0x00, 
  0x80, 0x03, 0x0F, 0x00, 0x00, 0x00, 0x00, 0xC0, 0x03, 0x0E, 0x00, 0x00, 
  0x00, 0x00, 0xC0, 0x03, 0x1E, 0x00, 0x00, 0x00, 0x00, 0xE0, 0x01, 0x3E, 
  0x00, 0x00, 0x00, 0x00, 0xE0, 0x01, 0x7C, 0x00, 0x00, 0x00, 0x00, 0xF8, 
  0x00, 0xF8, 0xE1, 0x01, 0x00, 0x1E, 0x7E, 0x00, 0xF0, 0xFF, 0x03, 0x00, 
  0xFF, 0x3F, 0x00, 0xC0, 0xFF, 0x07, 0x80, 0xFF, 0x1F, 0x00, 0x00, 0xBF, 
  0x3F, 0xF0, 0xF7, 0x03, 0x00, 0x00, 0x00, 0xFF, 0xFF, 0x03, 0x00, 0x00, 
  0x00, 0x00, 0xFC, 0xFF, 0x00, 0x00, 0x00, 0x00, 0x00, 0xE0, 0x1F, 0x00, 
  0x00, 0x00, };
