#define snow_width 50
#define snow_height 50
static char snow_bits[] = {
  0x00, 0x00, 0xE0, 0x1F, 0x00, 0x00, 0x00, 0x00, 0x00, 0xFC, 0xFF, 0x00, 
  0x00, 0x00, 0x00, 0x00, 0xFE, 0xFF, 0x01, 0x00, 0x00, 0x00, 0x80, 0x3F, 
  0xF0, 0x07, 0x00, 0x00, 0x00, 0xC0, 0x0F, 0xC0, 0x0F, 0x00, 0x00, 0x00, 
  0xE0, 0x03, 0x00, 0x1F, 0x00, 0x00, 0x00, 0xFE, 0x01, 0x00, 0xFE, 0x03, 
  0x00, 0xC0, 0xFF, 0x00, 0x00, 0xFC, 0x0F, 0x00, 0xF0, 0x7F, 0x00, 0x00, 
  0xF8, 0x3F, 0x00, 0xF8, 0x3F, 0x00, 0x00, 0x70, 0x7F, 0x00, 0x7C, 0x00, 
  0x00, 0x00, 0x00, 0xF8, 0x00, 0x3C, 0x00, 0x00, 0x00, 0x00, 0xF0, 0x00, 
  0x1E, 0x00, 0x00, 0x00, 0x00, 0xE0, 0x01, 0x0E, 0x00, 0x00, 0x00, 0x00, 
  0xC0, 0x01, 0x0F, 0x00, 0x00, 0x00, 0x00, 0xC0, 0x03, 0x07, 0x00, 0x00, 
  0x00, 0x00, 0x80, 0x03, 0x07, 0x00, 0x00, 0x00, 0x00, 0x80, 0x03, 0x07, 
  0x00, 0x00, 0x00, 0x00, 0x80, 0x03, 0x07, 0x00, 0x00, 0x00, 0x00, 0x80, 
  0x03, 0x0F, 0x00, 0x00, 0x00, 0x00, 0x80, 0x03, 0x0F, 0x00, 0x00, 0x00, 
  0x00, 0xC0, 0x03, 0x1E, 0x00, 0x00, 0x00, 0x00, 0xC0, 0x01, 0x1E, 0x00, 
  0x00, 0x00, 0x00, 0xE0, 0x01, 0x3C, 0x00, 0x00, 0x00, 0x00, 0xF0, 0x00, 
  0xF8, 0xC0, 0x00, 0x00, 0x0C, 0x7C, 0x00, 0xF0, 0xFF, 0x03, 0x00, 0xFE, 
  0x3F, 0x00, 0xE0, 0xFF, 0x07, 0x80, 0xFF, 0x1F, 0x00, 0x80, 0xFF, 0x1F, 
  0xE0, 0xFF, 0x07, 0x00, 0x00, 0x00, 0xFF, 0xFF, 0x03, 0x00, 0x00, 0x00, 
  0x00, 0xFC, 0xFF, 0x00, 0x00, 0x00, 0x00, 0x00, 0xF0, 0x3F, 0x00, 0x00, 
  0x00, 0x00, 0x03, 0x00, 0x00, 0x00, 0x00, 0x00, 0xF0, 0x03, 0x00, 0x00, 
  0x00, 0x00, 0x00, 0xF0, 0x0B, 0x00, 0x03, 0x00, 0x00, 0x00, 0xE0, 0x1F, 
  0x80, 0x07, 0x00, 0x03, 0x00, 0x70, 0x0E, 0x80, 0x07, 0x00, 0x37, 0x00, 
  0xF8, 0x07, 0x8C, 0xC7, 0x00, 0x3F, 0x00, 0xF8, 0x07, 0xFE, 0xFF, 0xE1, 
  0x1F, 0x00, 0xC0, 0x0F, 0xFE, 0xFF, 0xC1, 0x39, 0x00, 0xC0, 0x00, 0xFC, 
  0xFF, 0x80, 0x7B, 0x00, 0x00, 0x00, 0xF0, 0x3C, 0x80, 0x7F, 0x00, 0x00, 
  0x00, 0x70, 0x38, 0xC0, 0x0F, 0x00, 0x00, 0x00, 0xF0, 0x7C, 0x80, 0x0C, 
  0x00, 0x00, 0x00, 0xFC, 0xFF, 0x00, 0x08, 0x00, 0x00, 0x00, 0xFE, 0xFF, 
  0x01, 0x00, 0x00, 0x00, 0x00, 0xFE, 0xFF, 0x01, 0x00, 0x00, 0x00, 0x00, 
  0x8C, 0xC7, 0x00, 0x00, 0x00, 0x00, 0x00, 0x80, 0x07, 0x00, 0x00, 0x00, 
  0x00, 0x00, 0x80, 0x07, 0x00, 0x00, 0x00, 0x00, 0x00, 0x00, 0x03, 0x00, 
  0x00, 0x00, };
