#define active_width 8
#define active_height 8
static unsigned char active_bits[] = {
   0x00, 0x18, 0x3c, 0x7e, 0x7e, 0x3c, 0x18, 0x00 };
