#define temp2_width 60
#define temp2_height 60
static unsigned char temp2_bits[] = {
   0x00, 0x00, 0x00, 0x00, 0x00, 0x00, 0x00, 0x00, 0x00, 0x00, 0x00, 0x00,
   0x00, 0x00, 0x00, 0x00, 0x00, 0x00, 0x00, 0x00, 0x00, 0x00, 0x00, 0x00,
   0x00, 0x00, 0x00, 0x00, 0x00, 0x00, 0x00, 0x00, 0x00, 0x00, 0x00, 0x00,
   0x00, 0x00, 0x00, 0x00, 0x00, 0x00, 0x00, 0x00, 0x00, 0x00, 0x00, 0x00,
   0x00, 0x00, 0x00, 0x00, 0x00, 0x00, 0x00, 0x00, 0x00, 0x00, 0x00, 0x00,
   0x00, 0x00, 0x00, 0x00, 0x00, 0x00, 0x00, 0x00, 0x00, 0x00, 0x00, 0x00,
   0x00, 0x00, 0x00, 0x00, 0x00, 0x00, 0x00, 0x00, 0x00, 0x00, 0x00, 0x00,
   0x00, 0x00, 0x00, 0x00, 0x00, 0x00, 0x00, 0x00, 0x00, 0x00, 0x00, 0x00,
   0x00, 0x00, 0x00, 0x00, 0x00, 0x00, 0x00, 0x00, 0x00, 0x00, 0x00, 0xf8,
   0x01, 0x00, 0x00, 0x00, 0x00, 0x00, 0x00, 0xfc, 0x03, 0x00, 0x00, 0x00,
   0x00, 0x00, 0x00, 0x9e, 0x07, 0x00, 0x00, 0x00, 0x00, 0x00, 0x00, 0x0e,
   0x07, 0x00, 0x00, 0x00, 0x00, 0x00, 0x00, 0x06, 0x06, 0x00, 0x00, 0x00,
   0x00, 0x00, 0x00, 0x06, 0x06, 0x00, 0x00, 0x00, 0x00, 0x00, 0x00, 0x06,
   0x06, 0x00, 0x00, 0x00, 0x00, 0x00, 0x00, 0x06, 0x06, 0x00, 0x00, 0x00,
   0x00, 0x00, 0x00, 0x06, 0x06, 0x00, 0x00, 0x00, 0x00, 0x00, 0x00, 0x06,
   0x06, 0x00, 0x00, 0x00, 0x00, 0x00, 0x00, 0x06, 0x06, 0x00, 0x00, 0x00,
   0x00, 0x00, 0x00, 0x06, 0x06, 0x00, 0x00, 0x00, 0x00, 0x00, 0x00, 0x06,
   0x06, 0x00, 0x00, 0x00, 0x00, 0x00, 0x00, 0x06, 0x06, 0x00, 0x00, 0x00,
   0x00, 0x00, 0x00, 0x06, 0x06, 0x00, 0x00, 0x00, 0x00, 0x00, 0x00, 0x66,
   0x06, 0x00, 0x00, 0x00, 0x00, 0x00, 0x00, 0x66, 0x06, 0x00, 0x00, 0x00,
   0x00, 0x00, 0x00, 0x66, 0x06, 0x00, 0x00, 0x00, 0x00, 0x00, 0x00, 0x66,
   0x06, 0x00, 0x00, 0x00, 0x00, 0x00, 0x00, 0x66, 0x06, 0x00, 0x00, 0x00,
   0x00, 0x00, 0x00, 0x66, 0x06, 0x00, 0x00, 0x00, 0x00, 0x00, 0x00, 0x66,
   0x06, 0x00, 0x00, 0x00, 0x00, 0x00, 0x00, 0x67, 0x0e, 0x00, 0x00, 0x00,
   0x00, 0x00, 0x00, 0x67, 0x0e, 0x00, 0x00, 0x00, 0x00, 0x00, 0x80, 0xf3,
   0x1c, 0x00, 0x00, 0x00, 0x00, 0x00, 0x80, 0xfb, 0x1d, 0x00, 0x00, 0x00,
   0x00, 0x00, 0x80, 0xf9, 0x19, 0x00, 0x00, 0x00, 0x00, 0x00, 0x80, 0xf9,
   0x19, 0x00, 0x00, 0x00, 0x00, 0x00, 0x80, 0xfb, 0x1d, 0x00, 0x00, 0x00,
   0x00, 0x00, 0x80, 0xf3, 0x1c, 0x00, 0x00, 0x00, 0x00, 0x00, 0x00, 0x07,
   0x0e, 0x00, 0x00, 0x00, 0x00, 0x00, 0x00, 0x9f, 0x0f, 0x00, 0x00, 0x00,
   0x00, 0x00, 0x00, 0xfe, 0x07, 0x00, 0x00, 0x00, 0x00, 0x00, 0x00, 0xf8,
   0x01, 0x00, 0x00, 0x00, 0x00, 0x00, 0x00, 0x00, 0x00, 0x00, 0x00, 0x00,
   0x00, 0x00, 0x00, 0x00, 0x00, 0x00, 0x00, 0x00, 0x00, 0x00, 0x00, 0x00,
   0x00, 0x00, 0x00, 0x00, 0x00, 0x00, 0x00, 0x00, 0x00, 0x00, 0x00, 0x00,
   0x00, 0x00, 0x00, 0x00, 0x00, 0x00, 0x00, 0x00, 0x00, 0x00, 0x00, 0x00,
   0x00, 0x00, 0x00, 0x00, 0x00, 0x00, 0x00, 0x00, 0x00, 0x00, 0x00, 0x00,
   0x00, 0x00, 0x00, 0x00, 0x00, 0x00, 0x00, 0x00, 0x00, 0x00, 0x00, 0x00,
   0x00, 0x00, 0x00, 0x00, 0x00, 0x00, 0x00, 0x00, 0x00, 0x00, 0x00, 0x00,
   0x00, 0x00, 0x00, 0x00, 0x00, 0x00, 0x00, 0x00, 0x00, 0x00, 0x00, 0x00,
   0x00, 0x00, 0x00, 0x00, 0x00, 0x00, 0x00, 0x00, 0x00, 0x00, 0x00, 0x00 };
