#define clouds_width 60
#define clouds_height 60
static unsigned short clouds_bits[] = {
   0x0000, 0x0000, 0x0000, 0x0000, 0x0000, 0x0000, 0x0000, 0x0000, 0x0000,
   0x0000, 0x0000, 0x0000, 0x0000, 0x0000, 0x0000, 0x0000, 0x0000, 0x0000,
   0x0000, 0x0000, 0x0000, 0x0000, 0x0000, 0x0000, 0x0000, 0x0000, 0x0000,
   0x0000, 0x0000, 0x0000, 0x0000, 0x0000, 0x0000, 0xf000, 0x000f, 0x0000,
   0x0000, 0xfe00, 0x007f, 0x0000, 0x0000, 0xff80, 0x01ff, 0x0000, 0x0000,
   0xffc0, 0x07ff, 0x0000, 0x0000, 0xffe0, 0x0fff, 0x0000, 0x0000, 0x1ff0,
   0x1ff8, 0x0000, 0x0000, 0x07f8, 0x3fc0, 0x0000, 0x0000, 0x01fc, 0x7f00,
   0x0000, 0x0000, 0x00fe, 0x7e00, 0x0000, 0x0000, 0x007e, 0xfc00, 0x0000,
   0xe000, 0x003f, 0xf800, 0x0001, 0xfc00, 0x001f, 0xf800, 0x0001, 0xff00,
   0x001f, 0xf000, 0x0001, 0xff80, 0x000f, 0xf000, 0x0003, 0xffc0, 0x000f,
   0xe000, 0x0003, 0x3fe0, 0x000c, 0xe000, 0x0003, 0x07f0, 0x0000, 0xe000,
   0x000f, 0x03f0, 0x0000, 0xe000, 0x001f, 0x01f8, 0x0000, 0xe000, 0x003f,
   0x00f8, 0x0000, 0xe000, 0x007f, 0x00fc, 0x0000, 0xa000, 0x00ff, 0x007c,
   0x0000, 0x0000, 0x01fc, 0x007c, 0x0000, 0x0000, 0x01f8, 0x007c, 0x0000,
   0x0000, 0x01f0, 0x007c, 0x0000, 0x0000, 0x03f0, 0x007c, 0x0000, 0x0000,
   0x03e0, 0x007c, 0x0000, 0x0000, 0x03e0, 0x00fc, 0x0000, 0x0000, 0x03e0,
   0x00f8, 0x0000, 0x0000, 0x03e0, 0x01f8, 0x0000, 0x0000, 0x03f0, 0x03f8,
   0x0000, 0x0000, 0x01f0, 0x07f0, 0x01c0, 0x0703, 0x01f8, 0x1fe0, 0x81c0,
   0x0703, 0x00fe, 0xffc0, 0xc0e3, 0xe383, 0x00ff, 0xff80, 0xc0f1, 0xe3c1,
   0x007f, 0xff00, 0xe0f0, 0xe3c1, 0x003f, 0xfe00, 0xe0f8, 0xe1e1, 0x000f,
   0x7000, 0xf078, 0xf1f0, 0x0003, 0x0000, 0xf87c, 0x01f0, 0x0000, 0x0000,
   0xf87e, 0x00f8, 0x0000, 0x0000, 0x7c3e, 0x00f8, 0x0000, 0x0000, 0x7e3e,
   0x00f8, 0x0000, 0x0000, 0x3e1c, 0x0070, 0x0000, 0x0000, 0x3e00, 0x0000,
   0x0000, 0x0000, 0x3e00, 0x0000, 0x0000, 0x0000, 0x0c00, 0x0000, 0x0000,
   0x0000, 0x0000, 0x0000, 0x0000, 0x0000, 0x0000, 0x0000, 0x0000, 0x0000,
   0x0000, 0x0000, 0x0000, 0x0000, 0x0000, 0x0000, 0x0000, 0x0000, 0x0000,
   0x0000, 0x0000, 0x0000, 0x0000, 0x0000, 0x0000 };
